<svg width="591" height="114" viewBox="0 0 591 114" fill="none" xmlns="http://www.w3.org/2000/svg">
<path d="M465.897 67.4243C463.187 62.9074 456.963 59.7956 449.134 59.7956C434.88 59.7956 424.441 69.5322 424.441 86.8976C424.441 103.561 434.178 114 449.134 114C457.164 114 463.388 110.386 465.998 105.869L466.901 112.996H479.95V40.9027H465.897V67.4243ZM452.346 101.453C444.516 101.453 438.895 96.032 438.895 86.8976C438.895 77.9642 444.516 72.3429 452.346 72.3429C459.874 72.3429 465.596 77.8637 465.596 86.8976C465.596 96.032 459.874 101.453 452.346 101.453Z" fill="#9BB0C2"/>
<path d="M535 100.74C534.09 100.689 531.773 100.221 531.481 96.8367V79.75C531.481 64.154 519.502 58.9554 507.933 58.9554C494.64 58.9554 485.086 65.5551 484.247 76.53H497.412C498.357 72.7305 502.08 70.27 507.319 70.27C513.257 70.27 517.045 73.532 517.045 79.4442V80.4752H505.505C494.028 80.4752 488.827 85.2275 488.827 85.2275L489.033 85.1983C484.856 87.9971 482.849 92.3603 482.849 97.6903C482.849 107.884 490.425 114 502.2 114C510.083 114 516.226 111.248 519.195 106.763C520.321 111.35 524.212 112.981 528.921 112.981H534.587V112.994H536.858V100.74H535ZM517.045 93.0013C517.045 99.3214 512.95 102.787 505.885 102.787C501.176 102.787 497.592 101.156 497.592 96.7729C497.592 93.9188 499.23 91.0648 505.373 91.0648H517.045V93.0013Z" fill="#9BB0C2"/>
<path d="M562.96 59.6951C579.249 59.6951 590.826 70.7367 590.826 86.8976C590.826 103.159 579.249 114 562.96 114C546.671 114 535.094 103.159 535.094 86.8976C535.094 70.7367 546.671 59.6951 562.96 59.6951ZM562.96 102.055C570.951 102.055 576.176 96.032 576.176 86.7974C576.176 77.4621 570.951 71.6401 562.96 71.6401C554.969 71.6401 549.745 77.4621 549.745 86.7974C549.745 96.032 554.969 102.055 562.96 102.055Z" fill="#9BB0C2"/>
<path d="M420.659 65.7153V112.903H398.935V70.1439C398.935 57.0109 392.618 50.2916 382.141 50.2916C370.74 50.2916 364.578 58.0798 364.578 70.9075V112.903H343.008V33.4932C349.382 33.4923 355.755 33.4913 362.129 33.4904C362.843 36.6474 363.556 39.8043 364.269 42.9613C368.429 36.3948 376.441 31.9661 388.458 31.9661C408.949 31.9661 420.659 45.4048 420.659 65.7153Z" fill="#808FAA"/>
<path d="M338.014 94.8657C337.91 94.8709 337.807 94.8815 337.701 94.8815H325.525C322.086 94.8815 319.299 92.0941 319.299 88.6556V86.5593C319.247 85.8838 319.222 85.1587 319.222 84.3759V51.7922H337.556V33.4904H319.101V11.3728H297.701V33.4904H284.523V51.7822H285.327V51.7922H297.652V89.1628C297.652 103.679 305.356 112.944 321.225 112.944C326.879 112.941 332.534 112.938 338.188 112.934C338.13 106.911 338.072 100.889 338.014 94.8657Z" fill="#808FAA"/>
<path d="M255.745 31.2897C254.42 31.1539 253.083 31.0995 251.742 31.1302C241.912 31.2724 232.598 35.5949 227.901 44.8355C226.267 41.7205 224.157 39.1673 221.676 37.1413C219.519 35.3447 217.126 34.0335 214.603 33.1076C211.053 31.7721 207.114 31.1234 202.942 31.1234C201.657 31.1234 200.413 31.1902 199.211 31.3182C199.11 31.3253 199.008 31.3307 198.908 31.3384C196.593 31.5145 194.493 32.0585 192.616 32.8034C189.272 34.0188 186.458 35.8753 184.273 38.3097C183.037 39.5188 182.23 40.5354 181.886 40.9947L181.643 40.1318L179.678 32.6641H179.543L179.54 32.6535H159.645V34.2433L159.649 34.2486V112.78H181.219V67.946C181.219 56.0828 187.381 50.3821 196.471 50.3821C205.099 50.3821 210.954 55.7745 210.954 68.8704V112.78H231.753V68.4084C232.061 55.9287 238.532 50.3821 247.006 50.3821C255.788 50.3821 261.488 55.7745 261.488 67.7918V112.934H283.212V63.478C283.212 42.9184 270.378 32.6804 255.745 31.2897Z" fill="#808FAA"/>
<path d="M81.4788 78.8545C103.254 78.8545 120.906 61.2023 120.906 39.4272C120.906 17.6522 103.254 0 81.4788 0C59.7037 0 42.0515 17.6522 42.0515 39.4272C42.0515 61.2023 59.7037 78.8545 81.4788 78.8545Z" fill="url(#paint0_linear_111_764)"/>
<path d="M81.43 67.9961C97.1814 67.9961 109.95 55.2271 109.95 39.4758C109.95 23.7244 97.1814 10.9554 81.43 10.9554C65.6787 10.9554 52.9097 23.7244 52.9097 39.4758C52.9097 55.2271 65.6787 67.9961 81.43 67.9961Z" fill="url(#paint1_linear_111_764)"/>
<path d="M55.0299 108.182H52.737H50.4441V105.889V103.596H48.1512H45.8583V101.303V99.0103H43.5654H41.2724V96.7174V94.4245V92.1316V89.8387H38.9795H36.6866V87.5457V85.2528V82.9599V80.667V78.3741V76.0812H34.3937H32.1008V78.3741V80.667H29.8079H27.515V82.9599V85.2528H25.222H22.9291V87.5457V89.8387H20.6362H18.3433H16.0504H13.7575V92.1316V94.4245H11.4646H9.17165V96.7174V99.0103H6.87874H4.58583V101.303V103.596V105.889V108.182H2.29291H0V110.475V112.768H2.29291H4.58583H6.87874H9.17165H11.4646H13.7575V110.475V108.182H16.0504H18.3433V105.889V103.596H20.6362H22.9291V101.303V99.0103H25.222H27.515V101.303V103.596V105.889V108.182V110.475V112.768H29.8079H32.1008V110.475V108.182V105.889V103.596H34.3937H36.6866V105.889V108.182H38.9795H41.2724V110.475V112.768H43.5654H45.8583H48.1512H50.4441H52.737H55.0299V110.475V108.182Z" fill="#42577A"/>
<path d="M41.2725 108.182H38.9796H36.6867V105.889V103.596H34.3937H32.1008V105.889V108.182V110.475V112.768H34.3937H36.6867H38.9796H41.2725V110.475V108.182Z" fill="#667E93"/>
<path d="M68.7876 89.8387H71.0805H73.3734V87.5458V85.2528H71.0805H68.7876V87.5458V89.8387Z" fill="#667E93"/>
<path d="M73.3733 94.4245H75.6662H77.9591V92.1316V89.8387H75.6662H73.3733V92.1316V94.4245Z" fill="#667E93"/>
<path d="M146.747 94.4245H149.039H151.332V92.1316V89.8387H149.039H146.747V92.1316V94.4245Z" fill="#667E93"/>
<path d="M151.332 99.0103H153.625H155.918V96.7174V94.4245H153.625H151.332V96.7174V99.0103Z" fill="#667E93"/>
<path d="M160.504 85.2528H158.211H155.918V87.5458V89.8387H158.211H160.504V87.5458V85.2528Z" fill="#667E93"/>
<path d="M165.09 89.8387H162.797H160.504V92.1316V94.4245H162.797H165.09V92.1316V89.8387Z" fill="#667E93"/>
<path d="M165.09 108.182V105.889V103.596H162.797H160.504V105.889V108.182H158.211H155.918V110.475V112.768H158.211H160.504H162.797H165.09V110.475V108.182Z" fill="#667E93"/>
<path d="M169.676 94.4245H167.383H165.09V96.7174V99.0103H167.383H169.676V96.7174V94.4245Z" fill="#667E93"/>
<path d="M192.605 108.182H190.312H188.019H185.726H183.433V105.889V103.596H181.14H178.847V101.303V99.0103H176.554H174.261H171.968H169.676V101.303V103.596H171.968H174.261V105.889V108.182H176.554H178.847V110.475V112.768H181.14H183.433H185.726H188.019H190.312H192.605V110.475V108.182Z" fill="#667E93"/>
<path d="M114.646 30.2229V27.93V25.6371V23.3442V21.0512H112.353H110.06V23.3442V25.6371V27.93V30.2229H112.353H114.646Z" fill="#42577A"/>
<path d="M123.817 16.4654V14.1725V11.8796H121.524H119.231V14.1725V16.4654H121.524H123.817Z" fill="#667E93"/>
<path d="M142.161 108.182H139.868H137.575V105.889V103.596H135.282H132.989V101.303V99.0103V96.7174V94.4245H130.696H128.403V92.1316V89.8387V87.5457V85.2528V82.9599V80.667V78.3741V76.0812V73.7883V71.4954H126.11H123.817V69.2024V66.9095H121.524H119.232V64.6166V62.3237V60.0308V57.7379H121.524H123.817V60.0308V62.3237V64.6166V66.9095H126.11H128.403V69.2024V71.4954H130.696H132.989V73.7883V76.0812H135.282H137.575V78.3741V80.667V82.9599V85.2528H139.868H142.161V87.5457V89.8387H144.454H146.747V87.5457V85.2528V82.9599V80.667H144.454H142.161V78.3741V76.0812V73.7883V71.4954H139.868H137.575V69.2024V66.9095V64.6166V62.3237H135.282H132.989V60.0308V57.7379H130.696H128.403V55.445V53.152V50.8591V48.5662H126.11H123.817V46.2733V43.9804V41.6875V39.3946H121.524H119.232V37.1016V34.8087V32.5158V30.2229V27.93V25.6371V23.3442V21.0513V18.7583V16.4654H116.939H114.646V18.7583V21.0513V23.3442V25.6371V27.93V30.2229H112.353H110.06V32.5158V34.8087V37.1016V39.3946H107.767H105.474V41.6875V43.9804V46.2733V48.5662H103.181H100.888V50.8591V53.152V55.445V57.7379V60.0308V62.3237H98.5953H96.3024V64.6166V66.9095V69.2024V71.4954H94.0095H91.7166V73.7883V76.0812H89.4237H87.1307V78.3741V80.667H84.8378H82.5449V82.9599V85.2528V87.5457V89.8387H84.8378H87.1307V87.5457V85.2528H89.4237H91.7166H94.0095H96.3024V82.9599V80.667H98.5953H100.888V78.3741V76.0812H103.181H105.474V78.3741V80.667V82.9599V85.2528H103.181H100.888V87.5457V89.8387V92.1316V94.4245H103.181H105.474V92.1316V89.8387H107.767H110.06V87.5457V85.2528H112.353H114.646V82.9599V80.667H116.939H119.232V82.9599V85.2528V87.5457V89.8387H116.939H114.646V92.1316V94.4245V96.7174V99.0103H112.353H110.06V101.303V103.596V105.889V108.182H112.353H114.646V110.475V112.768H116.939H119.232H121.524H123.817H126.11H128.403H130.696H132.989H135.282H137.575H139.868H142.161V110.475V108.182Z" fill="#667E93"/>
<path d="M77.9592 99.0103H80.2521H82.5451V96.7174V94.4245H80.2521H77.9592V96.7174V99.0103Z" fill="#667E93"/>
<path d="M82.5449 103.596H84.8378H87.1307V101.303V99.0103H84.8378H82.5449V101.303V103.596Z" fill="#667E93"/>
<path d="M87.1306 108.182H89.4235H91.7164V105.889V103.596H89.4235H87.1306V105.889V108.182Z" fill="#667E93"/>
<path d="M64.2017 80.667V82.9599V85.2528H66.4946H68.7875V82.9599V80.667V78.3741V76.0812H66.4946H64.2017V78.3741V80.667Z" fill="#667E93"/>
<path d="M114.646 108.182H112.353H110.06V105.889V103.596V101.303V99.0103H112.353H114.646V96.7174V94.4245V92.1316V89.8387H116.939H119.231V87.5457V85.2528V82.9599V80.667H116.939H114.646V82.9599V85.2528H112.353H110.06V87.5457V89.8387H107.767H105.474V92.1316V94.4245H103.181H100.888V92.1316V89.8387V87.5457V85.2528H103.181H105.474V82.9599V80.667V78.3741V76.0812H103.181H100.888V78.3741V80.667H98.5953H96.3023V82.9599V85.2528H94.0094H91.7165H89.4236H87.1307V87.5457V89.8387H84.8378H82.5449V87.5457V85.2528V82.9599V80.667H84.8378H87.1307V78.3741V76.0812H89.4236H91.7165V73.7883V71.4954H94.0094H96.3023V69.2024V66.9095V64.6166V62.3237H98.5953H100.888V60.0308V57.7379V55.445V53.152V50.8591V48.5662H103.181H105.474V46.2733V43.9804V41.6875V39.3946H107.767H110.06V37.1016V34.8087V32.5158V30.2229H107.767H105.474V32.5158V34.8087H103.181H100.888V37.1016V39.3946V41.6875V43.9804H98.5953H96.3023V46.2733V48.5662H94.0094H91.7165V50.8591V53.152H89.4236H87.1307V55.445V57.7379H84.8378H82.5449V60.0308V62.3237H80.2519H77.959V60.0308V57.7379V55.445V53.152H75.6661H73.3732V55.445V57.7379V60.0308V62.3237H71.0803H68.7874V64.6166V66.9095H66.4945H64.2016V69.2024V71.4954H61.9086H59.6157V73.7883V76.0812H61.9086H64.2016H66.4945H68.7874V78.3741V80.667V82.9599V85.2528H71.0803H73.3732V87.5457V89.8387H75.6661H77.959V92.1316V94.4245H80.2519H82.5449V96.7174V99.0103H84.8378H87.1307V101.303V103.596H89.4236H91.7165V105.889V108.182H89.4236H87.1307V105.889V103.596H84.8378H82.5449V101.303V99.0103H80.2519H77.959H75.6661H73.3732V96.7174V94.4245H71.0803H68.7874V96.7174V99.0103V101.303V103.596H71.0803H73.3732V105.889V108.182H75.6661H77.959V110.475V112.768H80.2519H82.5449H84.8378H87.1307H89.4236H91.7165H94.0094H96.3023H98.5953H100.888H103.181H105.474H107.767H110.06H112.353H114.646V110.475V108.182Z" fill="#42577A"/>
<path d="M178.847 108.182H176.554H174.261V105.889V103.596H171.969H169.676V101.303V99.0103H167.383H165.09V101.303V103.596V105.889V108.182V110.475V112.768H167.383H169.676H171.969H174.261H176.554H178.847V110.475V108.182Z" fill="#42577A"/>
<path d="M77.9591 108.182H75.6662H73.3733V105.889V103.596H71.0804H68.7874V101.303V99.0103V96.7174V94.4245V92.1316V89.8387H66.4945H64.2016H61.9087H59.6158V92.1316V94.4245V96.7174V99.0103H61.9087H64.2016V101.303V103.596H61.9087H59.6158V101.303V99.0103H57.3229H55.03V96.7174V94.4245V92.1316V89.8387H52.7371H50.4441V87.5457V85.2528H48.1512H45.8583V82.9599V80.667V78.3741V76.0812V73.7883V71.4954H43.5654H41.2725V69.2024V66.9095V64.6166V62.3237H38.9796H36.6867V64.6166V66.9095H34.3937H32.1008V69.2024V71.4954V73.7883V76.0812H34.3937H36.6867V78.3741V80.667V82.9599V85.2528V87.5457V89.8387H38.9796H41.2725V92.1316V94.4245V96.7174V99.0103H43.5654H45.8583V101.303V103.596H48.1512H50.4441V105.889V108.182H52.7371H55.03V110.475V112.768H57.3229H59.6158H61.9087H64.2016H66.4945H68.7874H71.0804H73.3733H75.6662H77.9591V110.475V108.182Z" fill="#667E93"/>
<path d="M50.4442 80.667V78.3741V76.0812H48.1513H45.8584V78.3741V80.667V82.9599V85.2528H48.1513H50.4442V82.9599V80.667Z" fill="#819DAF"/>
<path d="M64.2017 85.2528V82.9599V80.667H61.9088H59.6159H57.3229H55.03V82.9599V85.2528V87.5457V89.8386V92.1316V94.4245V96.7174V99.0103H57.3229H59.6159V96.7174V94.4245V92.1316V89.8386H61.9088H64.2017H66.4946H68.7875V87.5457V85.2528H66.4946H64.2017Z" fill="#819DAF"/>
<path d="M137.575 80.667V78.3741V76.0812H135.282H132.989V78.3741V80.667H135.282H137.575Z" fill="#819DAF"/>
<path d="M160.504 71.4953V69.2024V66.9095H158.211H155.918H153.625H151.332V69.2024V71.4953V73.7883V76.0812H153.625H155.918V78.3741V80.667H158.211H160.504V82.9599V85.2528V87.5457V89.8387H162.797H165.09V92.1316V94.4245H167.383H169.676V92.1316V89.8387V87.5457V85.2528V82.9599V80.667V78.3741V76.0812H167.383H165.09V73.7883V71.4953H162.797H160.504Z" fill="#819DAF"/>
<path d="M169.676 94.4245V96.7174V99.0103H171.968H174.261V96.7174V94.4245H171.968H169.676Z" fill="#819DAF"/>
<path d="M146.746 76.0812V73.7883V71.4954H144.454H142.161V73.7883V76.0812V78.3741V80.667H144.454H146.746V78.3741V76.0812Z" fill="#819DAF"/>
<path d="M123.817 62.3237V60.0308V57.7379H121.524H119.231V60.0308V62.3237V64.6166V66.9095H121.524H123.817V64.6166V62.3237Z" fill="#819DAF"/>
<path d="M119.231 21.0513V23.3442V25.6371V27.93V30.2229V32.5158V34.8087V37.1016V39.3946H121.524H123.817V41.6875V43.9804V46.2733V48.5662H126.11H128.403V50.8591V53.152V55.445V57.7379H130.696H132.989V60.0308V62.3237H135.282H137.575V64.6166V66.9095V69.2024V71.4954H139.868H142.161V69.2024V66.9095H144.453H146.746V64.6166V62.3237V60.0308V57.7379H144.453H142.161V55.445V53.152H139.868H137.575V50.8591V48.5662V46.2733V43.9804H135.282H132.989V41.6875V39.3946V37.1016V34.8087H130.696H128.403V32.5158V30.2229V27.93V25.6371V23.3442V21.0513V18.7583V16.4654H126.11H123.817H121.524H119.231V18.7583V21.0513Z" fill="#819DAF"/>
<path d="M155.918 108.182H158.211H160.504V105.889V103.596H162.797H165.09V101.303V99.0103V96.7174V94.4245H162.797H160.504V92.1316V89.8386H158.211H155.918V87.5457V85.2528V82.9599V80.667H153.625H151.332H149.039H146.746V82.9599V85.2528V87.5457V89.8386H149.039H151.332V92.1316V94.4245H153.625H155.918V96.7174V99.0103H153.625H151.332H149.039H146.746V96.7174V94.4245H144.453H142.161V92.1316V89.8386H139.868H137.575V87.5457V85.2528H135.282H132.989V82.9599V80.667H130.696H128.403V82.9599V85.2528V87.5457V89.8386V92.1316V94.4245H130.696H132.989V96.7174V99.0103V101.303V103.596H135.282H137.575V105.889V108.182H139.868H142.161V110.475V112.768H144.453H146.746H149.039H151.332H153.625H155.918V110.475V108.182Z" fill="#819DAF"/>
<path d="M197.191 108.182H194.898H192.605V110.475V112.768H194.898H197.191V110.475V108.182Z" fill="#819DAF"/>
<path d="M68.7876 89.8387V92.1316V94.4245H71.0805H73.3734V92.1316V89.8387H71.0805H68.7876Z" fill="#819DAF"/>
<path d="M73.3733 94.4245V96.7174V99.0103H75.6662H77.9591V96.7174V94.4245H75.6662H73.3733Z" fill="#819DAF"/>
<path d="M59.6157 103.596H61.9086H64.2016V101.303V99.0103H61.9086H59.6157V101.303V103.596Z" fill="#819DAF"/>
<path d="M45.8583 66.9095H43.5654H41.2725V69.2024V71.4953H43.5654H45.8583V69.2024V66.9095Z" fill="#819DAF"/>
<path d="M82.5449 48.5662V50.8591V53.152V55.4449V57.7379H84.8378H87.1307V55.4449V53.152H89.4237H91.7166V50.8591V48.5662V46.2733V43.9804V41.6875V39.3945V37.1016V34.8087H89.4237H87.1307V37.1016V39.3945V41.6875V43.9804H84.8378H82.5449V46.2733V48.5662Z" fill="#819DAF"/>
<path d="M32.1007 80.667V78.3741V76.0812H29.8078H27.5149V78.3741V80.667H29.8078H32.1007Z" fill="#667E93"/>
<path d="M77.9592 57.7379V60.0308V62.3237H80.2521H82.5451V60.0308V57.7379V55.4449V53.152V50.8591V48.5662V46.2733V43.9804H80.2521H77.9592V46.2733V48.5662V50.8591V53.152V55.4449V57.7379Z" fill="#667E93"/>
<path d="M87.1307 43.9804V41.6875V39.3945V37.1016V34.8087H84.8378H82.5449V37.1016V39.3945V41.6875V43.9804H84.8378H87.1307Z" fill="#667E93"/>
<path d="M91.7164 34.8087V32.5158V30.2229H89.4235H87.1306V32.5158V34.8087H89.4235H91.7164Z" fill="#667E93"/>
<path d="M41.2725 66.9095H43.5654H45.8583V69.2024V71.4953V73.7883V76.0812H48.1512H50.4441V78.3741V80.667V82.9599V85.2528V87.5457V89.8386H52.737H55.0299V87.5457V85.2528V82.9599V80.667H57.3229H59.6158H61.9087H64.2016V78.3741V76.0812H61.9087H59.6158V73.7883V71.4953H57.3229H55.0299V69.2024V66.9095H52.737H50.4441V64.6166V62.3237H48.1512H45.8583V60.0308V57.7379H43.5654H41.2725V60.0308V62.3237V64.6166V66.9095Z" fill="#A4C2C5"/>
<path d="M91.7166 39.3945V41.6875V43.9804V46.2733V48.5662H94.0095H96.3024V46.2733V43.9804H98.5953H100.888V41.6875V39.3945H98.5953H96.3024V37.1016V34.8087H94.0095H91.7166V37.1016V39.3945Z" fill="#A4C2C5"/>
<path d="M128.403 66.9095H126.11H123.817V69.2024V71.4953H126.11H128.403V69.2024V66.9095Z" fill="#A4C2C5"/>
<path d="M132.989 76.0812V73.7883V71.4954H130.696H128.403V73.7883V76.0812V78.3741V80.667H130.696H132.989V78.3741V76.0812Z" fill="#A4C2C5"/>
<path d="M137.575 80.667H135.282H132.989V82.9599V85.2528H135.282H137.575V82.9599V80.667Z" fill="#A4C2C5"/>
<path d="M142.161 85.2528H139.868H137.575V87.5458V89.8387H139.868H142.161V87.5458V85.2528Z" fill="#A4C2C5"/>
<path d="M142.161 89.8387V92.1316V94.4245H144.454H146.746V92.1316V89.8387H144.454H142.161Z" fill="#A4C2C5"/>
<path d="M146.747 94.4245V96.7174V99.0103H149.039H151.332V96.7174V94.4245H149.039H146.747Z" fill="#A4C2C5"/>
<path d="M160.504 85.2528V82.9599V80.667H158.211H155.918V82.9599V85.2528H158.211H160.504Z" fill="#A4C2C5"/>
<path d="M169.676 85.2528V87.5457V89.8386V92.1316V94.4245H171.968H174.261V92.1316V89.8386V87.5457V85.2528V82.9599V80.667H171.968H169.676V82.9599V85.2528Z" fill="#A4C2C5"/>
<path d="M174.261 99.0103H176.554H178.847V96.7174V94.4245H176.554H174.261V96.7174V99.0103Z" fill="#A4C2C5"/>
<path d="M178.847 103.596H181.14H183.433V101.303V99.0103H181.14H178.847V101.303V103.596Z" fill="#A4C2C5"/>
<path d="M183.433 108.182H185.726H188.019H190.312H192.605V105.889V103.596H190.312H188.019H185.726H183.433V105.889V108.182Z" fill="#A4C2C5"/>
<path d="M208.655 108.182H206.362H204.069H201.777H199.484H197.191V110.475V112.768H199.484H201.777H204.069H206.362H208.655H210.948V110.475V108.182H208.655Z" fill="#A4C2C5"/>
<path d="M132.989 39.3945V41.6875V43.9804H135.282H137.575V46.2733V48.5662V50.8591V53.152H139.868H142.161V55.4449V57.7379H144.454H146.746V60.0308V62.3237V64.6166V66.9095H144.454H142.161V69.2024V71.4953H144.454H146.746V73.7883V76.0812V78.3741V80.667H149.039H151.332H153.625H155.918V78.3741V76.0812H153.625H151.332V73.7883V71.4953V69.2024V66.9095H153.625H155.918H158.211H160.504V69.2024V71.4953H162.797H165.09V69.2024V66.9095V64.6166V62.3237H162.797H160.504V60.0308V57.7379H158.211H155.918H153.625H151.332V55.4449V53.152H149.039H146.746V50.8591V48.5662H144.454H142.161V46.2733V43.9804V41.6875V39.3945H139.868H137.575V37.1016V34.8087H135.282H132.989V37.1016V39.3945Z" fill="#A4C2C5"/>
<path d="M128.403 25.6371V27.93V30.2229V32.5158V34.8087H130.696H132.989V32.5158V30.2229V27.93V25.6371V23.3442V21.0512H130.696H128.403V23.3442V25.6371Z" fill="#A4C2C5"/>
<path d="M27.515 108.182V105.889V103.596V101.303V99.0103H25.2221H22.9292V101.303V103.596H20.6363H18.3434V105.889V108.182H16.0505H13.7576V110.475V112.768H16.0505H18.3434H20.6363H22.9292H25.2221H27.515V110.475V108.182Z" fill="#667E93"/>
<path d="M55.038 108.194H52.7451H50.4522V105.901V103.608H48.1592H45.8663V101.315V99.0225H43.5734H41.2805V96.7295V94.4366V92.1437V89.8508H38.9876H36.6947V87.5579V85.265V82.9721V80.6792V78.3862V76.0933H34.4018H32.1088V78.3862V80.6792H29.8159H27.523V82.9721V85.265H25.2301H22.9372V87.5579V89.8508H20.6443H18.3514H16.0585H13.7655V92.1437V94.4366H11.4726H9.17971V96.7295V99.0225H6.8868H4.59388V101.315V103.608V105.901V108.194H2.30097H0.00805664V110.487V112.78H2.30097H4.59388H6.8868H9.17971H11.4726H13.7655V110.487V108.194H16.0585H18.3514V105.901V103.608H20.6443H22.9372V101.315V99.0225H25.2301H27.523V101.315V103.608V105.901V108.194V110.487V112.78H29.8159H32.1088V110.487V108.194V105.901V103.608H34.4018H36.6947V105.901V108.194H38.9876H41.2805V110.487V112.78H43.5734H45.8663H48.1592H50.4522H52.7451H55.038V110.487V108.194Z" fill="#42577A"/>
<path d="M41.2805 108.194H38.9876H36.6947V105.901V103.608H34.4018H32.1089V105.901V108.194V110.487V112.78H34.4018H36.6947H38.9876H41.2805V110.487V108.194Z" fill="#667E93"/>
<path d="M68.7957 89.8508H71.0886H73.3815V87.5579V85.265H71.0886H68.7957V87.5579V89.8508Z" fill="#667E93"/>
<path d="M73.3813 94.4367H75.6743H77.9672V92.1437V89.8508H75.6743H73.3813V92.1437V94.4367Z" fill="#667E93"/>
<path d="M146.755 94.4367H149.048H151.34V92.1437V89.8508H149.048H146.755V92.1437V94.4367Z" fill="#667E93"/>
<path d="M151.34 99.0225H153.633H155.926V96.7296V94.4366H153.633H151.34V96.7296V99.0225Z" fill="#667E93"/>
<path d="M160.512 85.265H158.219H155.926V87.5579V89.8508H158.219H160.512V87.5579V85.265Z" fill="#667E93"/>
<path d="M165.098 89.8508H162.805H160.512V92.1437V94.4367H162.805H165.098V92.1437V89.8508Z" fill="#667E93"/>
<path d="M165.098 108.194V105.901V103.608H162.805H160.512V105.901V108.194H158.219H155.926V110.487V112.78H158.219H160.512H162.805H165.098V110.487V108.194Z" fill="#667E93"/>
<path d="M169.684 94.4366H167.391H165.098V96.7296V99.0225H167.391H169.684V96.7296V94.4366Z" fill="#667E93"/>
<path d="M192.613 108.194H190.32H188.027H185.734H183.441V105.901V103.608H181.148H178.855V101.315V99.0225H176.563H174.27H171.977H169.684V101.315V103.608H171.977H174.27V105.901V108.194H176.563H178.855V110.487V112.78H181.148H183.441H185.734H188.027H190.32H192.613V110.487V108.194Z" fill="#667E93"/>
<path d="M114.654 30.2351V27.9422V25.6492V23.3563V21.0634H112.361H110.068V23.3563V25.6492V27.9422V30.2351H112.361H114.654Z" fill="#42577A"/>
<path d="M123.826 16.4776V14.1847V11.8918H121.533H119.24V14.1847V16.4776H121.533H123.826Z" fill="#667E93"/>
<path d="M142.169 108.194H139.876H137.583V105.901V103.608H135.29H132.997V101.315V99.0225V96.7295V94.4366H130.704H128.411V92.1437V89.8508V87.5579V85.265V82.9721V80.6792V78.3862V76.0933V73.8004V71.5075H126.118H123.825V69.2146V66.9217H121.533H119.24V64.6288V62.3358V60.0429V57.75H121.533H123.825V60.0429V62.3358V64.6288V66.9217H126.118H128.411V69.2146V71.5075H130.704H132.997V73.8004V76.0933H135.29H137.583V78.3862V80.6792V82.9721V85.265H139.876H142.169V87.5579V89.8508H144.462H146.755V87.5579V85.265V82.9721V80.6792H144.462H142.169V78.3862V76.0933V73.8004V71.5075H139.876H137.583V69.2146V66.9217V64.6288V62.3358H135.29H132.997V60.0429V57.75H130.704H128.411V55.4571V53.1642V50.8713V48.5784H126.118H123.825V46.2854V43.9925V41.6996V39.4067H121.533H119.24V37.1138V34.8209V32.528V30.2351V27.9421V25.6492V23.3563V21.0634V18.7705V16.4776H116.947H114.654V18.7705V21.0634V23.3563V25.6492V27.9421V30.2351H112.361H110.068V32.528V34.8209V37.1138V39.4067H107.775H105.482V41.6996V43.9925V46.2854V48.5784H103.189H100.896V50.8713V53.1642V55.4571V57.75V60.0429V62.3358H98.6034H96.3105V64.6288V66.9217V69.2146V71.5075H94.0175H91.7246V73.8004V76.0933H89.4317H87.1388V78.3862V80.6792H84.8459H82.553V82.9721V85.265V87.5579V89.8508H84.8459H87.1388V87.5579V85.265H89.4317H91.7246H94.0175H96.3105V82.9721V80.6792H98.6034H100.896V78.3862V76.0933H103.189H105.482V78.3862V80.6792V82.9721V85.265H103.189H100.896V87.5579V89.8508V92.1437V94.4366H103.189H105.482V92.1437V89.8508H107.775H110.068V87.5579V85.265H112.361H114.654V82.9721V80.6792H116.947H119.24V82.9721V85.265V87.5579V89.8508H116.947H114.654V92.1437V94.4366V96.7295V99.0225H112.361H110.068V101.315V103.608V105.901V108.194H112.361H114.654V110.487V112.78H116.947H119.24H121.533H123.825H126.118H128.411H130.704H132.997H135.29H137.583H139.876H142.169V110.487V108.194Z" fill="#667E93"/>
<path d="M77.967 99.0225H80.26H82.5529V96.7296V94.4366H80.26H77.967V96.7296V99.0225Z" fill="#667E93"/>
<path d="M82.553 103.608H84.8459H87.1388V101.315V99.0225H84.8459H82.553V101.315V103.608Z" fill="#667E93"/>
<path d="M87.1389 108.194H89.4318H91.7247V105.901V103.608H89.4318H87.1389V105.901V108.194Z" fill="#667E93"/>
<path d="M64.2097 80.6792V82.9721V85.265H66.5026H68.7955V82.9721V80.6792V78.3862V76.0933H66.5026H64.2097V78.3862V80.6792Z" fill="#667E93"/>
<path d="M114.654 108.194H112.361H110.068V105.901V103.608V101.315V99.0225H112.361H114.654V96.7295V94.4366V92.1437V89.8508H116.947H119.24V87.5579V85.265V82.9721V80.6791H116.947H114.654V82.9721V85.265H112.361H110.068V87.5579V89.8508H107.775H105.482V92.1437V94.4366H103.189H100.896V92.1437V89.8508V87.5579V85.265H103.189H105.482V82.9721V80.6791V78.3862V76.0933H103.189H100.896V78.3862V80.6791H98.6036H96.3106V82.9721V85.265H94.0177H91.7248H89.4319H87.139V87.5579V89.8508H84.8461H82.5532V87.5579V85.265V82.9721V80.6791H84.8461H87.139V78.3862V76.0933H89.4319H91.7248V73.8004V71.5075H94.0177H96.3106V69.2146V66.9217V64.6287V62.3358H98.6036H100.896V60.0429V57.75V55.4571V53.1642V50.8713V48.5784H103.189H105.482V46.2854V43.9925V41.6996V39.4067H107.775H110.068V37.1138V34.8209V32.528V30.235H107.775H105.482V32.528V34.8209H103.189H100.896V37.1138V39.4067V41.6996V43.9925H98.6036H96.3106V46.2854V48.5784H94.0177H91.7248V50.8713V53.1642H89.4319H87.139V55.4571V57.75H84.8461H82.5532V60.0429V62.3358H80.2602H77.9673V60.0429V57.75V55.4571V53.1642H75.6744H73.3815V55.4571V57.75V60.0429V62.3358H71.0886H68.7957V64.6287V66.9217H66.5028H64.2099V69.2146V71.5075H61.9169H59.624V73.8004V76.0933H61.9169H64.2099H66.5028H68.7957V78.3862V80.6791V82.9721V85.265H71.0886H73.3815V87.5579V89.8508H75.6744H77.9673V92.1437V94.4366H80.2602H82.5532V96.7295V99.0225H84.8461H87.139V101.315V103.608H89.4319H91.7248V105.901V108.194H89.4319H87.139V105.901V103.608H84.8461H82.5532V101.315V99.0225H80.2602H77.9673H75.6744H73.3815V96.7295V94.4366H71.0886H68.7957V96.7295V99.0225V101.315V103.608H71.0886H73.3815V105.901V108.194H75.6744H77.9673V110.487V112.78H80.2602H82.5532H84.8461H87.139H89.4319H91.7248H94.0177H96.3106H98.6036H100.896H103.189H105.482H107.775H110.068H112.361H114.654V110.487V108.194Z" fill="#42577A"/>
<path d="M178.855 108.194H176.562H174.27V105.901V103.608H171.977H169.684V101.315V99.0225H167.391H165.098V101.315V103.608V105.901V108.194V110.487V112.78H167.391H169.684H171.977H174.27H176.562H178.855V110.487V108.194Z" fill="#42577A"/>
<path d="M77.9672 108.194H75.6743H73.3813V105.901V103.608H71.0884H68.7955V101.315V99.0225V96.7295V94.4366V92.1437V89.8508H66.5026H64.2097H61.9168H59.6239V92.1437V94.4366V96.7295V99.0225H61.9168H64.2097V101.315V103.608H61.9168H59.6239V101.315V99.0225H57.3309H55.038V96.7295V94.4366V92.1437V89.8508H52.7451H50.4522V87.5579V85.265H48.1593H45.8664V82.9721V80.6792V78.3862V76.0933V73.8004V71.5075H43.5735H41.2805V69.2146V66.9217V64.6288V62.3358H38.9876H36.6947V64.6288V66.9217H34.4018H32.1089V69.2146V71.5075V73.8004V76.0933H34.4018H36.6947V78.3862V80.6792V82.9721V85.265V87.5579V89.8508H38.9876H41.2805V92.1437V94.4366V96.7295V99.0225H43.5735H45.8664V101.315V103.608H48.1593H50.4522V105.901V108.194H52.7451H55.038V110.487V112.78H57.3309H59.6239H61.9168H64.2097H66.5026H68.7955H71.0884H73.3813H75.6743H77.9672V110.487V108.194Z" fill="#667E93"/>
<path d="M50.452 80.6792V78.3862V76.0933H48.1591H45.8662V78.3862V80.6792V82.9721V85.265H48.1591H50.452V82.9721V80.6792Z" fill="#819DAF"/>
<path d="M64.2097 85.265V82.9721V80.6792H61.9168H59.6239H57.331H55.0381V82.9721V85.265V87.5579V89.8508V92.1437V94.4367V96.7296V99.0225H57.331H59.6239V96.7296V94.4367V92.1437V89.8508H61.9168H64.2097H66.5027H68.7956V87.5579V85.265H66.5027H64.2097Z" fill="#819DAF"/>
<path d="M137.583 80.6792V78.3862V76.0933H135.29H132.997V78.3862V80.6792H135.29H137.583Z" fill="#819DAF"/>
<path d="M160.512 71.5075V69.2146V66.9217H158.219H155.926H153.633H151.34V69.2146V71.5075V73.8004V76.0933H153.633H155.926V78.3862V80.6791H158.219H160.512V82.9721V85.265V87.5579V89.8508H162.805H165.098V92.1437V94.4366H167.391H169.684V92.1437V89.8508V87.5579V85.265V82.9721V80.6791V78.3862V76.0933H167.391H165.098V73.8004V71.5075H162.805H160.512Z" fill="#819DAF"/>
<path d="M169.684 94.4366V96.7296V99.0225H171.977H174.27V96.7296V94.4366H171.977H169.684Z" fill="#819DAF"/>
<path d="M146.755 76.0933V73.8004V71.5075H144.462H142.169V73.8004V76.0933V78.3862V80.6792H144.462H146.755V78.3862V76.0933Z" fill="#819DAF"/>
<path d="M123.826 62.3358V60.0429V57.75H121.533H119.24V60.0429V62.3358V64.6287V66.9217H121.533H123.826V64.6287V62.3358Z" fill="#819DAF"/>
<path d="M119.24 21.0634V23.3563V25.6492V27.9421V30.2351V32.528V34.8209V37.1138V39.4067H121.533H123.826V41.6996V43.9925V46.2854V48.5784H126.118H128.411V50.8713V53.1642V55.4571V57.75H130.704H132.997V60.0429V62.3358H135.29H137.583V64.6288V66.9217V69.2146V71.5075H139.876H142.169V69.2146V66.9217H144.462H146.755V64.6288V62.3358V60.0429V57.75H144.462H142.169V55.4571V53.1642H139.876H137.583V50.8713V48.5784V46.2854V43.9925H135.29H132.997V41.6996V39.4067V37.1138V34.8209H130.704H128.411V32.528V30.2351V27.9421V25.6492V23.3563V21.0634V18.7705V16.4776H126.118H123.826H121.533H119.24V18.7705V21.0634Z" fill="#819DAF"/>
<path d="M155.926 108.194H158.219H160.512V105.901V103.608H162.805H165.098V101.315V99.0225V96.7296V94.4367H162.805H160.512V92.1437V89.8508H158.219H155.926V87.5579V85.265V82.9721V80.6792H153.633H151.341H149.048H146.755V82.9721V85.265V87.5579V89.8508H149.048H151.341V92.1437V94.4367H153.633H155.926V96.7296V99.0225H153.633H151.341H149.048H146.755V96.7296V94.4367H144.462H142.169V92.1437V89.8508H139.876H137.583V87.5579V85.265H135.29H132.997V82.9721V80.6792H130.704H128.411V82.9721V85.265V87.5579V89.8508V92.1437V94.4367H130.704H132.997V96.7296V99.0225V101.315V103.608H135.29H137.583V105.901V108.194H139.876H142.169V110.487V112.78H144.462H146.755H149.048H151.341H153.633H155.926V110.487V108.194Z" fill="#819DAF"/>
<path d="M197.199 108.194H194.906H192.613V110.487V112.78H194.906H197.199V110.487V108.194Z" fill="#819DAF"/>
<path d="M68.7957 89.8508V92.1437V94.4367H71.0886H73.3815V92.1437V89.8508H71.0886H68.7957Z" fill="#819DAF"/>
<path d="M73.3813 94.4366V96.7296V99.0225H75.6743H77.9672V96.7296V94.4366H75.6743H73.3813Z" fill="#819DAF"/>
<path d="M59.624 103.608H61.9169H64.2099V101.315V99.0225H61.9169H59.624V101.315V103.608Z" fill="#819DAF"/>
<path d="M45.8663 66.9217H43.5734H41.2805V69.2146V71.5075H43.5734H45.8663V69.2146V66.9217Z" fill="#819DAF"/>
<path d="M82.553 48.5784V50.8713V53.1642V55.4571V57.75H84.8459H87.1388V55.4571V53.1642H89.4317H91.7246V50.8713V48.5784V46.2855V43.9925V41.6996V39.4067V37.1138V34.8209H89.4317H87.1388V37.1138V39.4067V41.6996V43.9925H84.8459H82.553V46.2855V48.5784Z" fill="#819DAF"/>
<path d="M32.1088 80.6792V78.3862V76.0933H29.8159H27.5229V78.3862V80.6792H29.8159H32.1088Z" fill="#667E93"/>
<path d="M77.967 57.75V60.0429V62.3358H80.26H82.5529V60.0429V57.75V55.4571V53.1642V50.8713V48.5784V46.2854V43.9925H80.26H77.967V46.2854V48.5784V50.8713V53.1642V55.4571V57.75Z" fill="#667E93"/>
<path d="M87.1388 43.9925V41.6996V39.4067V37.1138V34.8209H84.8459H82.553V37.1138V39.4067V41.6996V43.9925H84.8459H87.1388Z" fill="#667E93"/>
<path d="M91.7247 34.8209V32.528V30.235H89.4318H87.1389V32.528V34.8209H89.4318H91.7247Z" fill="#667E93"/>
<path d="M41.2805 66.9217H43.5734H45.8663V69.2146V71.5075V73.8004V76.0933H48.1593H50.4522V78.3862V80.6791V82.972V85.265V87.5579V89.8508H52.7451H55.038V87.5579V85.265V82.972V80.6791H57.3309H59.6238H61.9167H64.2097V78.3862V76.0933H61.9167H59.6238V73.8004V71.5075H57.3309H55.038V69.2146V66.9217H52.7451H50.4522V64.6287V62.3358H48.1593H45.8663V60.0429V57.75H43.5734H41.2805V60.0429V62.3358V64.6287V66.9217Z" fill="#A4C2C5"/>
<path d="M91.7246 39.4067V41.6996V43.9925V46.2855V48.5784H94.0175H96.3104V46.2855V43.9925H98.6034H100.896V41.6996V39.4067H98.6034H96.3104V37.1138V34.8209H94.0175H91.7246V37.1138V39.4067Z" fill="#A4C2C5"/>
<path d="M128.411 66.9217H126.118H123.825V69.2146V71.5075H126.118H128.411V69.2146V66.9217Z" fill="#A4C2C5"/>
<path d="M132.997 76.0933V73.8004V71.5075H130.704H128.411V73.8004V76.0933V78.3862V80.6792H130.704H132.997V78.3862V76.0933Z" fill="#A4C2C5"/>
<path d="M137.583 80.6792H135.29H132.997V82.9721V85.265H135.29H137.583V82.9721V80.6792Z" fill="#A4C2C5"/>
<path d="M142.169 85.265H139.876H137.583V87.5579V89.8508H139.876H142.169V87.5579V85.265Z" fill="#A4C2C5"/>
<path d="M142.169 89.8508V92.1437V94.4367H144.462H146.755V92.1437V89.8508H144.462H142.169Z" fill="#A4C2C5"/>
<path d="M146.755 94.4366V96.7296V99.0225H149.048H151.34V96.7296V94.4366H149.048H146.755Z" fill="#A4C2C5"/>
<path d="M160.512 85.265V82.9721V80.6792H158.219H155.926V82.9721V85.265H158.219H160.512Z" fill="#A4C2C5"/>
<path d="M169.684 85.265V87.5579V89.8508V92.1437V94.4367H171.977H174.27V92.1437V89.8508V87.5579V85.265V82.9721V80.6792H171.977H169.684V82.9721V85.265Z" fill="#A4C2C5"/>
<path d="M174.27 99.0225H176.562H178.855V96.7296V94.4366H176.562H174.27V96.7296V99.0225Z" fill="#A4C2C5"/>
<path d="M178.855 103.608H181.148H183.441V101.315V99.0225H181.148H178.855V101.315V103.608Z" fill="#A4C2C5"/>
<path d="M183.441 108.194H185.734H188.027H190.32H192.613V105.901V103.608H190.32H188.027H185.734H183.441V105.901V108.194Z" fill="#A4C2C5"/>
<path d="M208.663 108.194H206.37H204.077H201.785H199.492H197.199V110.487V112.78H199.492H201.785H204.077H206.37H208.663H210.956V110.487V108.194H208.663Z" fill="#A4C2C5"/>
<path d="M132.997 39.4067V41.6996V43.9925H135.29H137.583V46.2855V48.5784V50.8713V53.1642H139.876H142.169V55.4571V57.75H144.462H146.755V60.0429V62.3359V64.6288V66.9217H144.462H142.169V69.2146V71.5075H144.462H146.755V73.8004V76.0933V78.3862V80.6792H149.047H151.34H153.633H155.926V78.3862V76.0933H153.633H151.34V73.8004V71.5075V69.2146V66.9217H153.633H155.926H158.219H160.512V69.2146V71.5075H162.805H165.098V69.2146V66.9217V64.6288V62.3359H162.805H160.512V60.0429V57.75H158.219H155.926H153.633H151.34V55.4571V53.1642H149.047H146.755V50.8713V48.5784H144.462H142.169V46.2855V43.9925V41.6996V39.4067H139.876H137.583V37.1138V34.8209H135.29H132.997V37.1138V39.4067Z" fill="#A4C2C5"/>
<path d="M128.411 25.6492V27.9422V30.2351V32.528V34.8209H130.704H132.997V32.528V30.2351V27.9422V25.6492V23.3563V21.0634H130.704H128.411V23.3563V25.6492Z" fill="#A4C2C5"/>
<path d="M27.5231 108.194V105.901V103.608V101.315V99.0225H25.2302H22.9373V101.315V103.608H20.6444H18.3515V105.901V108.194H16.0585H13.7656V110.487V112.78H16.0585H18.3515H20.6444H22.9373H25.2302H27.5231V110.487V108.194Z" fill="#667E93"/>
<defs>
<linearGradient id="paint0_linear_111_764" x1="42.0515" y1="39.4272" x2="120.906" y2="39.4272" gradientUnits="userSpaceOnUse">
<stop stop-color="#A6B8C6"/>
<stop offset="1" stop-color="#A6B8C6"/>
</linearGradient>
<linearGradient id="paint1_linear_111_764" x1="60.6107" y1="58.9685" x2="102.249" y2="19.9831" gradientUnits="userSpaceOnUse">
<stop stop-color="#9761FF"/>
<stop offset="0.511944" stop-color="#75ADC8"/>
<stop offset="1" stop-color="#95E0B2"/>
</linearGradient>
</defs>
</svg>
